<svg width="100" height="100" viewBox="0 0 100 100" fill="none" xmlns="http://www.w3.org/2000/svg">
<circle cx="50" cy="50" r="50" fill="#161B22"/>
<path d="M36.8047 31.875H43.8359V55.5C43.8359 57.6719 43.3516 59.5938 42.3828 61.2656C41.4297 62.9219 40.0781 64.2031 38.3281 65.1094C36.5781 66.0156 34.6016 66.4688 32.3984 66.4688C28.7891 66.4688 25.9766 65.5547 23.9609 63.7266C21.9453 61.8828 20.9375 59.2812 20.9375 55.9219H28.0156C28.0156 57.5938 28.3672 58.8281 29.0703 59.625C29.7734 60.4219 30.8828 60.8203 32.3984 60.8203C33.7422 60.8203 34.8125 60.3594 35.6094 59.4375C36.4062 58.5156 36.8047 57.2031 36.8047 55.5V31.875ZM62.4688 57.5391L70.2031 31.875H78.0312L66.1484 66H58.8125L46.9766 31.875H54.7812L62.4688 57.5391Z" fill="#D5D5D5"/>
</svg>
